#!OML:ASF E:\acrobat2\Project_11_07_03\Capture day 1\Session 1\Acrobat.ASF
:FULLY-SPECIFIED
:DEGREES
513
root 5.50025 16.5263 24.5131 232.602 -49.2676 146.629
lowerback 13.1872 -3.73215 5.28064
upperback 1.57515 -4.14739 6.62675
thorax -5.58681 -2.22641 4.81603
lowerneck -7.20073 -4.21918 -0.547546
upperneck -7.95143 -5.74565 3.93886
head -1.13523 -3.0432 1.24323
rclavicle -3.18055e-014 -5.725e-014
rhumerus 15.0459 -53.943 -34.9994
rradius 26.0837
rwrist -16.78
rhand -20.0358 -47.8204
rfingers 7.12502
rthumb 6.30527 -437.707
lclavicle -3.18055e-014 -5.725e-014
lhumerus 19.4906 -18.3027 67.8479
lradius 34.2275
lwrist 5.97605
lhand -40.7255 -29.1358
lfingers 7.12502
lthumb -13.6671 0.395482
rfemur -56.6539 -30.8408 -4.13258
rtibia 65.5639
rfoot -29.732 -17.6601
rtoes 1.48426
lfemur -9.21703 0.518088 -15.7168
ltibia 2.12171
lfoot -24.5906 4.88845
ltoes 42.5521
514
root 5.46227 16.5778 24.6801 232.845 -50.0455 146.453
lowerback 13.0485 -3.73036 4.71539
upperback 1.20516 -4.17498 6.06435
thorax -5.90897 -2.20617 4.54193
lowerneck -7.32077 -3.92267 -0.204317
upperneck -7.44221 -5.3666 3.97627
head -0.9718 -2.8461 1.18975
rclavicle 0 3.81667e-014
rhumerus 12.5227 -54.3471 -33.39
rradius 26.5142
rwrist -17.2278
rhand -19.8097 -47.3118
rfingers 7.12502
rthumb 6.52354 -437.191
lclavicle 0 3.81667e-014
lhumerus 17.9372 -18.3972 68.418
lradius 32.911
lwrist 5.81131
lhand -40.5131 -28.5723
lfingers 7.12502
lthumb -13.4623 0.972612
rfemur -56.0042 -31.0767 -4.6282
rtibia 64.9144
rfoot -29.5209 -17.4334
rtoes 1.54019
lfemur -9.21275 -0.711365 -15.8393
ltibia 1.32919
lfoot -25.3525 4.91019
ltoes 42.5311
515
root 5.42312 16.6359 24.8379 232.776 -51.432 146.843
lowerback 12.6855 -3.70234 4.83917
upperback 0.922597 -4.1139 5.78324
thorax -6.04161 -2.16976 4.14731
lowerneck -7.53042 -3.69316 -0.0267388
upperneck -7.0335 -5.07147 4.0999
head -0.817343 -2.69049 1.19079
rclavicle 1.59028e-014 7.31528e-014
rhumerus 9.50445 -54.3414 -31.1003
rradius 27.1193
rwrist -18.1803
rhand -20.1886 -46.9994
rfingers 7.12502
rthumb 6.15777 -436.89
lclavicle 1.59028e-014 7.31528e-014
lhumerus 16.639 -18.3527 69.0785
lradius 31.6167
lwrist 5.83517
lhand -40.0196 -28.1741
lfingers 7.12502
lthumb -12.9867 1.4017
rfemur -55.1535 -30.9467 -4.43052
rtibia 63.5513
rfoot -28.8419 -17.637
rtoes 0.0810993
lfemur -9.30049 -2.22022 -14.9906
ltibia 0.416771
lfoot -26.3763 4.98863
ltoes 43.1712
516
root 5.38169 16.7102 24.9691 232.229 -53.2168 147.483
lowerback 12.5182 -3.72863 5.17052
upperback 0.827423 -4.10589 5.71275
thorax -6.07886 -2.1726 3.87856
lowerneck -7.79285 -3.4857 0.138884
upperneck -6.85163 -4.81477 4.21485
head -0.724554 -2.56206 1.19484
rclavicle 3.33958e-014 -3.18055e-015
rhumerus 6.81531 -54.2312 -28.9268
rradius 27.6496
rwrist -19.042
rhand -20.5121 -46.7394
rfingers 7.12502
rthumb 5.84539 -436.639
lclavicle 3.33958e-014 -3.18055e-015
lhumerus 15.4365 -18.1473 69.6203
lradius 30.3835
lwrist 6.0403
lhand -39.5086 -27.6523
lfingers 7.12502
lthumb -12.494 1.95417
rfemur -53.4379 -30.4227 -4.0799
rtibia 61.4567
rfoot -27.7954 -17.995
rtoes -1.56767
lfemur -9.15918 -2.85153 -13.6922
ltibia -0.296043
lfoot -26.1055 5.18106
ltoes 42.8784
517
root 5.3453 16.7886 25.1297 232.849 -54.5992 147.315
lowerback 11.9883 -3.72789 5.31873
upperback 0.520652 -4.09436 5.42249
thorax -6.14329 -2.16335 3.45936
lowerneck -7.8258 -3.41773 0.228419
upperneck -6.9113 -4.7294 4.38498
head -0.737362 -2.52496 1.23519
rclavicle -6.36111e-015 7.95139e-014
rhumerus 3.46477 -53.9307 -26.2332
rradius 28.4064
rwrist -19.7616
rhand -20.4859 -46.7975
rfingers 7.12502
rthumb 5.87075 -436.696
lclavicle -6.36111e-015 7.95139e-014
lhumerus 14.2017 -18.0151 70.169
lradius 29.2043
lwrist 6.32784
lhand -38.9938 -26.9099
lfingers 7.12502
lthumb -11.9977 2.72623
rfemur -52.5205 -30.3069 -4.24774
rtibia 60.0871
rfoot -27.3275 -17.8114
rtoes -0.420448
lfemur -9.9451 -4.20091 -13.1972
ltibia -0.58994
lfoot -26.5566 5.28501
ltoes 42.9581
518
root 5.32276 16.8807 25.1684 231.733 -55.7586 147.193
lowerback 13.1291 -3.50266 4.0681
upperback 0.729667 -3.89677 5.26801
thorax -6.48759 -2.02996 4.03365
lowerneck -7.75978 -3.46366 -0.0951864
upperneck -7.03713 -4.74991 4.93696
head -0.765272 -2.53497 1.46666
rclavicle 1.04958e-013 -2.22639e-014
rhumerus -0.379219 -53.8555 -23.3204
rradius 29.3762
rwrist -19.8606
rhand -20.2893 -46.9228
rfingers 7.12502
rthumb 6.06056 -436.816
lclavicle 1.04958e-013 -2.22639e-014
lhumerus 13.0711 -17.6539 70.845
lradius 27.9889
lwrist 6.47642
lhand -38.2653 -26.1705
lfingers 7.12502
lthumb -11.2952 3.5054
rfemur -48.8332 -28.5049 -5.39693
rtibia 57.6786
rfoot -27.1748 -17.6166
rtoes 1.88126
lfemur -8.45009 -3.14774 -12.7011
ltibia -1.19364
lfoot -24.7683 4.96858
ltoes 43.498
519
root 5.29186 16.96 25.3493 232.313 -56.9251 147.321
lowerback 12.5275 -3.45827 4.19904
upperback 0.469447 -3.83697 5.07257
thorax -6.45408 -1.99895 3.70782
lowerneck -7.6801 -3.30101 -0.303776
upperneck -7.31941 -4.51173 5.25949
head -0.860453 -2.42526 1.61637
rclavicle 7.63333e-014 -1.90833e-014
rhumerus -2.17948 -54.0089 -21.4481
rradius 29.3948
rwrist -19.2562
rhand -20.1831 -46.5409
rfingers 7.12502
rthumb 6.16308 -436.431
lclavicle 7.63333e-014 -1.90833e-014
lhumerus 11.9622 -16.2359 71.6234
lradius 26.6434
lwrist 6.39207
lhand -37.3306 -25.4692
lfingers 7.12502
lthumb -10.3936 4.25394
rfemur -48.5881 -28.1253 -5.33004
rtibia 56.5644
rfoot -26.3834 -17.9514
rtoes 0.400246
lfemur -9.62809 -4.43938 -12.314
ltibia -1.18754
lfoot -25.4194 5.29911
ltoes 43.9555
520
root 5.26374 17.0386 25.508 232.778 -58.0887 147.401
lowerback 11.9665 -3.43044 4.14388
upperback 0.316858 -3.83349 4.90078
thorax -6.31102 -1.99221 3.51921
lowerneck -7.43731 -3.08149 -0.233252
upperneck -7.86221 -4.22244 5.25277
head -1.0812 -2.30525 1.62312
rclavicle -9.06458e-014 3.49861e-014
rhumerus -4.07515 -53.6959 -19.5391
rradius 29.4679
rwrist -18.9837
rhand -20.3 -45.7985
rfingers 7.12502
rthumb 6.05019 -435.692
lclavicle -9.06458e-014 3.49861e-014
lhumerus 10.84 -14.5809 72.2588
lradius 25.4746
lwrist 6.60478
lhand -36.5265 -24.7436
lfingers 7.12502
lthumb -9.6178 5.01685
rfemur -47.9986 -27.3776 -5.44922
rtibia 55.2114
rfoot -25.6173 -18.5732
rtoes -0.843572
lfemur -10.6671 -5.25758 -11.8681
ltibia -1.07269
lfoot -25.4189 5.96904
ltoes 43.5966
521
root 5.23816 17.1128 25.6482 233.22 -59.228 147.348
lowerback 11.4631 -3.31784 4.26994
upperback 0.229279 -3.70013 4.53625
thorax -6.15748 -1.92809 3.00522
lowerneck -7.29687 -2.99326 -0.212842
upperneck -8.25292 -4.10006 5.3583
head -1.22997 -2.26138 1.66627
rclavicle -2.06736e-014 -6.36111e-014
rhumerus -7.02467 -53.2983 -17.0318
rradius 29.8095
rwrist -18.7984
rhand -20.4864 -45.3657
rfingers 7.12502
rthumb 5.87021 -435.264
lclavicle -2.06736e-014 -6.36111e-014
lhumerus 9.82372 -13.7139 72.4466
lradius 24.674
lwrist 7.35264
lhand -36.0536 -24.126
lfingers 7.12502
lthumb -9.16148 5.65504
rfemur -47.0823 -26.2488 -5.87409
rtibia 53.6879
rfoot -25.0335 -19.1858
rtoes 0.36636
lfemur -11.5896 -5.73316 -11.4561
ltibia -0.86326
lfoot -25.1845 6.45445
ltoes 43.1137
522
root 5.21525 17.184 25.7662 233.236 -60.3289 147.45
lowerback 11.2659 -3.16721 4.17294
upperback 0.239152 -3.53156 4.23421
thorax -6.05203 -1.84139 2.69593
lowerneck -7.22638 -2.89768 0.0242059
upperneck -8.56564 -3.99312 5.18716
head -1.35197 -2.22476 1.58061
rclavicle -4.77083e-014 1.90833e-014
rhumerus -9.75009 -52.9994 -14.7682
rradius 30.1397
rwrist -18.4952
rhand -20.8598 -45.4592
rfingers 7.12502
rthumb 5.50967 -435.368
lclavicle -4.77083e-014 1.90833e-014
lhumerus 8.81846 -13.0687 72.3725
lradius 23.9637
lwrist 8.0197
lhand -35.8909 -23.6529
lfingers 7.12502
lthumb -9.0045 6.1349
rfemur -45.8514 -24.7275 -6.30897
rtibia 52.246
rfoot -24.6366 -18.8905
rtoes 3.19131
lfemur -12.078 -5.84451 -10.9841
ltibia -0.765396
lfoot -24.7718 6.8509
ltoes 42.4585
523
root 5.1973 17.255 25.8629 232.786 -61.4172 147.803
lowerback 11.3424 -3.01692 3.75769
upperback 0.327578 -3.38718 4.14694
thorax -5.98342 -1.75859 2.81114
lowerneck -7.12826 -2.80335 0.0137153
upperneck -8.87098 -3.86971 5.06644
head -1.47115 -2.17268 1.55398
rclavicle 9.54166e-015 2.54444e-014
rhumerus -11.6121 -52.7888 -12.9213
rradius 30.1643
rwrist -18.1312
rhand -21.1544 -45.3769
rfingers 7.12502
rthumb 5.22528 -435.292
lclavicle 9.54166e-015 2.54444e-014
lhumerus 7.74199 -12.1456 72.3321
lradius 23.2708
lwrist 8.37761
lhand -35.9269 -23.3171
lfingers 7.12502
lthumb -9.03927 6.46918
rfemur -44.4562 -22.8796 -6.52482
rtibia 50.8097
rfoot -24.1928 -18.3902
rtoes 4.96682
lfemur -12.2253 -4.91979 -10.4827
ltibia -0.670777
lfoot -23.6459 6.91178
ltoes 42.6388
524
root 5.17841 17.3281 25.981 232.582 -62.6938 148.024
lowerback 11.3003 -2.91505 3.84341
upperback 0.368118 -3.24799 4.08982
thorax -5.92726 -1.69303 2.67512
lowerneck -7.07473 -2.79584 -0.275611
upperneck -9.03705 -3.83672 5.11358
head -1.52834 -2.15263 1.62353
rclavicle -8.42847e-014 6.04305e-014
rhumerus -13.1949 -52.8385 -10.9928
rradius 29.926
rwrist -17.6101
rhand -21.4221 -45.1072
rfingers 7.12502
rthumb 4.96679 -435.029
lclavicle -8.42847e-014 6.04305e-014
lhumerus 6.82647 -10.8252 72.5167
lradius 22.4309
lwrist 8.18342
lhand -35.9169 -23.194
lfingers 7.12502
lthumb -9.02957 6.59279
rfemur -43.275 -21.2624 -6.53052
rtibia 49.3012
rfoot -23.3903 -18.0307
rtoes 4.2993
lfemur -12.7381 -3.50849 -10.0488
ltibia -0.307597
lfoot -22.187 6.29184
ltoes 44.6047
525
root 5.14655 17.4015 26.1013 232.307 -63.8418 148.155
lowerback 11.3817 -2.81211 3.98626
upperback 0.414252 -3.09503 3.93629
thorax -5.9422 -1.62229 2.41078
lowerneck -6.99969 -2.79866 -0.394883
upperneck -9.13991 -3.83041 5.05592
head -1.57306 -2.14659 1.6293
rclavicle 3.02153e-014 4.77083e-015
rhumerus -14.8138 -52.5012 -9.14919
rradius 29.7924
rwrist -17.4654
rhand -21.9349 -45.2652
rfingers 7.12502
rthumb 4.47164 -435.198
lclavicle 3.02153e-014 4.77083e-015
lhumerus 5.89628 -9.43743 72.5864
lradius 21.5857
lwrist 7.656
lhand -35.9273 -22.7821
lfingers 7.12502
lthumb -9.03966 7.0042
rfemur -41.9161 -19.5462 -6.76883
rtibia 47.5718
rfoot -22.4456 -17.7919
rtoes 2.44078
lfemur -12.9011 -3.18759 -9.71869
ltibia -0.259609
lfoot -21.4829 6.13652
ltoes 45.7479
526
root 5.09363 17.4746 26.2307 232.163 -64.7083 147.903
lowerback 11.5355 -2.83273 4.02078
upperback 0.521403 -3.12205 3.66251
thorax -5.93166 -1.63643 2.11121
lowerneck -6.89513 -2.64711 -0.3844
upperneck -9.16014 -3.63544 4.78566
head -1.60718 -2.04456 1.54557
rclavicle 4.77083e-015 3.97569e-014
rhumerus -15.9481 -52.2883 -7.94743
rradius 29.7416
rwrist -17.0434
rhand -21.9937 -45.1829
rfingers 7.12502
rthumb 4.4148 -435.117
lclavicle 4.77083e-015 3.97569e-014
lhumerus 4.72966 -8.035 72.3057
lradius 20.9433
lwrist 7.23057
lhand -35.9193 -22.2959
lfingers 7.12502
lthumb -9.03198 7.49076
rfemur -40.3284 -18.0615 -7.4927
rtibia 45.9127
rfoot -21.8132 -16.8864
rtoes 3.22716
lfemur -12.507 -5.20126 -9.60455
ltibia -0.775191
lfoot -22.4233 7.34565
ltoes 44.0635
527
root 5.05796 17.5379 26.3494 232.079 -65.6108 147.862
lowerback 11.5245 -2.83926 3.90883
upperback 0.533571 -3.14899 3.52082
thorax -5.91438 -1.6459 2.02726
lowerneck -6.66048 -2.45704 -0.185651
upperneck -9.21229 -3.40964 4.21732
head -1.68081 -1.9286 1.3382
rclavicle -1.11319e-014 -3.97569e-014
rhumerus -16.7396 -52.4197 -7.00924
rradius 29.659
rwrist -16.49
rhand -22.0449 -45.0049
rfingers 7.12502
rthumb 4.36545 -434.94
lclavicle -1.11319e-014 -3.97569e-014
lhumerus 3.47558 -6.79979 71.8399
lradius 20.4034
lwrist 6.98038
lhand -35.7262 -22.2885
lfingers 7.12502
lthumb -8.84564 7.50611
rfemur -39.2958 -16.6376 -7.7258
rtibia 44.5477
rfoot -21.2155 -15.6909
rtoes 5.73116
lfemur -12.5794 -5.20971 -9.4732
ltibia -0.838825
lfoot -21.3757 8.39154
ltoes 41.9926
